<svg xmlns="http://www.w3.org/2000/svg" width="1200" height="240" viewBox="0 0 1200 240" role="img" aria-labelledby="title desc">
  <title id="title">Наконечник без уплотнителя + медь</title><desc id="desc">Схематичный вид провода с технологической обработкой концов. Цвет изоляции условный.</desc>
  <defs>
  <linearGradient id="jacket" x2="0" y2="1"><stop stop-color="#264b82"/><stop offset=".18" stop-color="#5386c3"/><stop offset=".44" stop-color="#26609e"/><stop offset=".76" stop-color="#174574"/><stop offset="1" stop-color="#102f51"/></linearGradient>
  <linearGradient id="metal" x2="0" y2="1"><stop stop-color="#e9eff2"/><stop offset=".24" stop-color="#aebfc8"/><stop offset=".47" stop-color="#f7fafb"/><stop offset=".72" stop-color="#8d9ca5"/><stop offset="1" stop-color="#657783"/></linearGradient>
  <linearGradient id="copper" x2="0" y2="1"><stop stop-color="#e7ab73"/><stop offset=".48" stop-color="#b76739"/><stop offset="1" stop-color="#814529"/></linearGradient>
  <linearGradient id="tin" x2="0" y2="1"><stop stop-color="#f7faf9"/><stop offset=".5" stop-color="#b7c4c7"/><stop offset="1" stop-color="#738b92"/></linearGradient>
  <linearGradient id="seal" x2="0" y2="1"><stop stop-color="#a6c7a4"/><stop offset=".45" stop-color="#648e75"/><stop offset="1" stop-color="#355b53"/></linearGradient>
  <clipPath id="wire"><rect x="220" y="96" width="760" height="48" rx="17"/></clipPath>
</defs>
  <rect x="220" y="96" width="760" height="48" rx="17" fill="url(#jacket)" stroke="#25445f" stroke-width="2.5"/>
  <path d="M235 102H965" stroke="#b5d0ea" stroke-width="3" opacity=".5" clip-path="url(#wire)"/>
  <path d="M237 138H963" stroke="#092b51" stroke-width="3" opacity=".55" clip-path="url(#wire)"/>
  <g>
    <path d="M177 108L219 108V132H177Z" fill="url(#copper)" stroke="#8b4d2e" stroke-width="1.5"/>
    <path d="M179 111H218" stroke="#87492a" stroke-width="1" opacity=".8"/><path d="M179 114H218" stroke="#87492a" stroke-width="1" opacity=".8"/><path d="M179 117H218" stroke="#87492a" stroke-width="1" opacity=".8"/><path d="M179 120H218" stroke="#87492a" stroke-width="1" opacity=".8"/><path d="M179 123H218" stroke="#87492a" stroke-width="1" opacity=".8"/><path d="M179 126H218" stroke="#87492a" stroke-width="1" opacity=".8"/><path d="M179 129H218" stroke="#87492a" stroke-width="1" opacity=".8"/>
    <path d="M139 101H165L177 107V133L165 139H139Z" fill="url(#metal)" stroke="#536671" stroke-width="2"/>
    <path d="M47 96H136V144H47Q39 144 39 136V104Q39 96 47 96Z" fill="url(#metal)" stroke="#4c626b" stroke-width="2.5"/>
       <path d="M47 104H112V136H47Z" fill="#4b626f" stroke="#213a48" stroke-width="2"/>
       <path d="M53 109H106V131H53Z" fill="#d5e0e3" opacity=".87"/>
       <path d="M80 104V136M93 104V136" stroke="#72848c" stroke-width="2"/>
       <path d="M118 93L129 85L134 97" fill="url(#metal)" stroke="#4c626b" stroke-width="1.5"/>
    <path d="M139 100H154L166 106L170 113L161 117L149 111H139M139 140H154L166 134L170 127L161 123L149 129H139" fill="url(#metal)" stroke="#536671" stroke-width="2"/>
    <path d="M168 103H207L218 109V131L207 137H168L177 130V110Z" fill="url(#metal)" stroke="#526771" stroke-width="2.2"/>
    <path d="M181 104V136M193 103V137M204 105V135" stroke="#6f838d" stroke-width="2.2"/>
    <path d="M205 101Q224 90 239 96L245 104L236 112L221 107L211 111M205 139Q224 150 239 144L245 136L236 128L221 133L211 129" fill="url(#metal)" stroke="#4d626e" stroke-width="2"/>
    <path d="M219 108Q228 113 239 108M219 132Q228 127 239 132" fill="none" stroke="#556a72" stroke-width="2"/>
    <path d="M125 98H136M125 142H136" stroke="#6d8088" stroke-width="2"/></g>
  <g transform="translate(1200 0) scale(-1 1)"><path d="M146 105 Q144 120 146 135 L220 135 L220 105 Z" fill="url(#copper)" stroke="#8b4d2e" stroke-width="1.8"/>
    <path d="M148 107.0 Q180 106.0 218 107.0" fill="none" stroke="#8b4d2e" stroke-width="1.3" opacity=".82"/><path d="M148 110.2 Q180 111.6 218 110.2" fill="none" stroke="#8b4d2e" stroke-width="1.3" opacity=".82"/><path d="M148 113.4 Q180 112.4 218 113.4" fill="none" stroke="#8b4d2e" stroke-width="1.3" opacity=".82"/><path d="M148 116.6 Q180 118.0 218 116.6" fill="none" stroke="#8b4d2e" stroke-width="1.3" opacity=".82"/><path d="M148 119.8 Q180 118.8 218 119.8" fill="none" stroke="#8b4d2e" stroke-width="1.3" opacity=".82"/><path d="M148 123.0 Q180 124.4 218 123.0" fill="none" stroke="#8b4d2e" stroke-width="1.3" opacity=".82"/><path d="M148 126.2 Q180 125.2 218 126.2" fill="none" stroke="#8b4d2e" stroke-width="1.3" opacity=".82"/><path d="M148 129.4 Q180 130.8 218 129.4" fill="none" stroke="#8b4d2e" stroke-width="1.3" opacity=".82"/><path d="M148 132.6 Q180 131.6 218 132.6" fill="none" stroke="#8b4d2e" stroke-width="1.3" opacity=".82"/>
    <path d="M221 98V142" stroke="#153c67" stroke-width="3"/>
    <path d="M146 105V135" stroke="#8b4d2e" stroke-width="1.8"/></g>
</svg>
