<svg xmlns="http://www.w3.org/2000/svg" width="1200" height="240" viewBox="0 0 1200 240" role="img"><defs>
    <linearGradient id="wireBody" x1="0" y1="0" x2="0" y2="1"><stop stop-color="#fff" stop-opacity=".34"/><stop offset=".28" stop-color="#fff" stop-opacity=".1"/><stop offset=".8" stop-color="#001a2b" stop-opacity=".12"/><stop offset="1" stop-color="#001a2b" stop-opacity=".3"/></linearGradient>
    <linearGradient id="silver" x1="0" y1="0" x2="0" y2="1"><stop stop-color="#f8fafb"/><stop offset=".31" stop-color="#c5d0d5"/><stop offset=".56" stop-color="#e7edef"/><stop offset="1" stop-color="#889aa3"/></linearGradient>
    <linearGradient id="bronze" x1="0" y1="0" x2="0" y2="1"><stop stop-color="#f3ba85"/><stop offset=".45" stop-color="#ca7e4a"/><stop offset="1" stop-color="#854725"/></linearGradient>
    <linearGradient id="solder" x1="0" y1="0" x2="0" y2="1"><stop stop-color="#f7fbfb"/><stop offset=".54" stop-color="#b8c7cc"/><stop offset="1" stop-color="#80949c"/></linearGradient>
    <linearGradient id="rubber" x1="0" y1="0" x2="0" y2="1"><stop stop-color="#89bb8d"/><stop offset=".44" stop-color="#397b55"/><stop offset="1" stop-color="#28543d"/></linearGradient>
  </defs><g data-part="tin"><path d="M158 102H220V138H158Z" fill="url(#solder)" stroke="#728991" stroke-width="1.7"/><path d="M158 103 C176 101 194 105 220 103" fill="none" stroke="#728991" stroke-width="1.2" opacity=".9"/><path d="M158 106 C176 104 194 108 220 106" fill="none" stroke="#728991" stroke-width="1.2" opacity=".9"/><path d="M158 109 C176 107 194 111 220 109" fill="none" stroke="#728991" stroke-width="1.2" opacity=".9"/><path d="M158 112 C176 110 194 114 220 112" fill="none" stroke="#728991" stroke-width="1.2" opacity=".9"/><path d="M158 115 C176 113 194 117 220 115" fill="none" stroke="#728991" stroke-width="1.2" opacity=".9"/><path d="M158 118 C176 116 194 120 220 118" fill="none" stroke="#728991" stroke-width="1.2" opacity=".9"/><path d="M158 121 C176 119 194 123 220 121" fill="none" stroke="#728991" stroke-width="1.2" opacity=".9"/><path d="M158 124 C176 122 194 126 220 124" fill="none" stroke="#728991" stroke-width="1.2" opacity=".9"/><path d="M158 127 C176 125 194 129 220 127" fill="none" stroke="#728991" stroke-width="1.2" opacity=".9"/><path d="M158 130 C176 128 194 132 220 130" fill="none" stroke="#728991" stroke-width="1.2" opacity=".9"/><path d="M158 133 C176 131 194 135 220 133" fill="none" stroke="#728991" stroke-width="1.2" opacity=".9"/><path d="M158 136 C176 134 194 138 220 136" fill="none" stroke="#728991" stroke-width="1.2" opacity=".9"/>
    <path d="M158 102V138" stroke="#728991" stroke-width="2"/>
    <path d="M220 94V146" stroke="#1c3952" stroke-width="2.6"/></g></svg>
